# xmcd
#
# Track frame offsets: 
#        150
#        13208
#        28023
#        46973
#        66918
#        79009
#        96450
#        111716
#        124452
#        139939
#        153915
#        166004
#        178285
#        197924
#        215337
#        216447
#        233825
#
# Disc length: 3332 seconds
#
# Revision: 0
# Processed by: cddbd v1.5PL3 Copyright (c) Steve Scherf et al.
# Submitted via: ExactAudioCopy v0.95a4
#
DISCID=040d0211
DTITLE=Steve Earle and Del McCoury Band - Malmö - 1999.05.11 [Disc2]
DYEAR=1999
DGENRE=Bluegrass
TTITLE0=Mystery Train Pt. 2
TTITLE1=Leroy's Dustbowl Blues
TTITLE2=Hometown Blues
TTITLE3=Lonesome Highway Blues
TTITLE4=I'm Looking Through You
TTITLE5=Ben McCulloch
TTITLE6=Tom Ames' Prayer
TTITLE7=A Good Man Like Me
TTITLE8=Now She's Gone
TTITLE9=Valentine's Day
TTITLE10=Another Town
TTITLE11=South Nashville Blues
TTITLE12=I Ain't Ever Satisfied
TTITLE13=Copperhead Road
TTITLE14=Band Introductions
TTITLE15=Until The Day I Die
TTITLE16=Johnny Come Lately
EXTD=
EXTT0=
EXTT1=
EXTT2=
EXTT3=
EXTT4=
EXTT5=
EXTT6=
EXTT7=
EXTT8=
EXTT9=
EXTT10=
EXTT11=
EXTT12=
EXTT13=
EXTT14=
EXTT15=
EXTT16=
PLAYORDER=
